<?xml version="1.0" encoding="UTF-8"?>
<svg width="50px" height="60px" viewBox="0 0 50 60" version="1.1" xmlns="http://www.w3.org/2000/svg" xmlns:xlink="http://www.w3.org/1999/xlink">
    <!-- Generator: Sketch 49.3 (51167) - http://www.bohemiancoding.com/sketch -->
    <title>Fill 1</title>
    <desc>Created with Sketch.</desc>
    <defs></defs>
    <g id="Page-1" stroke="none" stroke-width="1" fill="none" fill-rule="evenodd">
        <g id="Artboard-Copy" transform="translate(-388.000000, -1456.000000)" fill="#383838">
            <path d="M398,1501.00078 C398,1502.37571 399.125,1503.50065 400.5,1503.50065 L403,1503.50065 L403,1512.2502 C403,1514.32509 404.675,1516 406.75,1516 C408.825,1516 410.5,1514.32509 410.5,1512.2502 L410.5,1503.50065 L415.5,1503.50065 L415.5,1512.2502 C415.5,1514.32509 417.175,1516 419.25,1516 C421.325,1516 423,1514.32509 423,1512.2502 L423,1503.50065 L425.5,1503.50065 C426.875,1503.50065 428,1502.37571 428,1501.00078 L428,1476.00208 L398,1476.00208 L398,1501.00078 Z M391.75,1476.00208 C389.675,1476.00208 388,1477.677 388,1479.75189 L388,1497.25098 C388,1499.32587 389.675,1501.00078 391.75,1501.00078 C393.825,1501.00078 395.5,1499.32587 395.5,1497.25098 L395.5,1479.75189 C395.5,1477.677 393.825,1476.00208 391.75,1476.00208 Z M434.25,1476.00208 C432.175,1476.00208 430.5,1477.677 430.5,1479.75189 L430.5,1497.25098 C430.5,1499.32587 432.175,1501.00078 434.25,1501.00078 C436.325,1501.00078 438,1499.32587 438,1497.25098 L438,1479.75189 C438,1477.677 436.325,1476.00208 434.25,1476.00208 Z M421.825,1461.40284 L425.0875,1458.14051 C425.575,1457.65304 425.575,1456.86558 425.0875,1456.37811 C424.6,1455.89063 423.8125,1455.89063 423.325,1456.37811 L419.625,1460.06541 C417.625,1459.07796 415.3875,1458.50299 413,1458.50299 C410.6,1458.50299 408.35,1459.07796 406.3375,1460.07791 L402.625,1456.36561 C402.1375,1455.87813 401.35,1455.87813 400.8625,1456.36561 C400.375,1456.85308 400.375,1457.64054 400.8625,1458.12801 L404.1375,1461.40284 C400.425,1464.1402 398,1468.53997 398,1473.50221 L428,1473.50221 C428,1468.52747 425.5625,1464.1277 421.825,1461.40284 Z M408,1468.50247 L405.5,1468.50247 L405.5,1466.0026 L408,1466.0026 L408,1468.50247 Z M420.5,1468.50247 L418,1468.50247 L418,1466.0026 L420.5,1466.0026 L420.5,1468.50247 Z" id="Fill-1"></path>
        </g>
    </g>
</svg>