<?xml version="1.0" encoding="UTF-8"?>
<svg width="49px" height="58px" viewBox="0 0 49 58" version="1.1" xmlns="http://www.w3.org/2000/svg" xmlns:xlink="http://www.w3.org/1999/xlink">
    <!-- Generator: Sketch 49.3 (51167) - http://www.bohemiancoding.com/sketch -->
    <title>Page 1</title>
    <desc>Created with Sketch.</desc>
    <defs></defs>
    <g id="Page-1" stroke="none" stroke-width="1" fill="none" fill-rule="evenodd">
        <g id="Artboard-Copy" transform="translate(-308.000000, -1455.000000)" fill="#383838">
            <path d="M355.152948,1500.38097 C354.288242,1502.37862 353.264713,1504.21744 352.078831,1505.90803 C350.46236,1508.21273 349.138831,1509.80803 348.118831,1510.69391 C346.537654,1512.14803 344.843536,1512.89273 343.029419,1512.93509 C341.727066,1512.93509 340.156478,1512.5645 338.328242,1511.81274 C336.494004,1511.06451 334.808356,1510.69392 333.267062,1510.69392 C331.650588,1510.69392 329.916945,1511.06451 328.062588,1511.81274 C326.205412,1512.56451 324.709294,1512.95627 323.565412,1512.9951 C321.825765,1513.06921 320.091765,1512.30333 318.360941,1510.69392 C317.256235,1509.73039 315.874474,1508.07862 314.219176,1505.73862 C312.443176,1503.2398 310.983059,1500.34216 309.839176,1497.03862 C308.614118,1493.47039 308,1490.01509 308,1486.66992 C308,1482.83804 308.828,1479.53309 310.486471,1476.76356 C311.789882,1474.53897 313.523882,1472.78415 315.694118,1471.49591 C317.864356,1470.20768 320.209294,1469.55121 322.734588,1469.50921 C324.116353,1469.50921 325.928356,1469.93662 328.180118,1470.77662 C330.425529,1471.61944 331.867294,1472.04685 332.499412,1472.04685 C332.972,1472.04685 334.573647,1471.54709 337.288824,1470.55073 C339.856478,1469.62673 342.023536,1469.24415 343.798831,1469.39485 C348.609419,1469.78309 352.223536,1471.67944 354.627066,1475.09591 C350.324713,1477.70273 348.196478,1481.35392 348.238831,1486.0378 C348.277654,1489.68615 349.601184,1492.72215 352.20236,1495.13274 C353.381184,1496.25157 354.697654,1497.11627 356.16236,1497.73039 C355.844713,1498.65157 355.509419,1499.53392 355.152948,1500.38098 L355.152948,1500.38097 Z M344.120007,1456.96568 C344.120007,1459.82524 343.075301,1462.49521 340.992948,1464.9665 C338.480007,1467.90438 335.440474,1469.60203 332.144356,1469.33415 C332.102356,1468.99109 332.078004,1468.63003 332.078004,1468.25062 C332.078004,1465.50544 333.273062,1462.56756 335.395298,1460.16544 C336.454827,1458.94921 337.80236,1457.93792 339.436478,1457.13121 C341.067066,1456.33652 342.609419,1455.89704 344.060007,1455.82179 C344.10236,1456.20406 344.120007,1456.58637 344.120007,1456.96564 L344.120007,1456.96568 Z" id="Page-1"></path>
        </g>
    </g>
</svg>